<?xml version="1.0" encoding="UTF-8"?>
<svg id="Layer_1" data-name="Layer 1" xmlns="http://www.w3.org/2000/svg" viewBox="0 0 512.16 382.87" fill="#000000">
  <path d="m422.27,193.72c-4.45,1.5-7.92,3.68-10.97,6.44-4.63,4.18-9.28,8.37-13.58,12.88-4.56,4.77-8.71,9.93-13.06,14.9-2.3,2.63-4.64,5.22-6.93,7.85-6.72,7.69-13.38,15.44-20.16,23.08-5.2,5.88-10.52,11.65-15.81,17.45-7.3,8-14.49,16.09-21.96,23.93-5.41,5.68-11.16,11.03-16.82,16.46-3.05,2.93-6.17,5.8-9.36,8.58-7.79,6.77-15.47,13.7-24.09,19.45-9.72,6.49-19.45,13-30.04,18.05-11,5.24-22.07,10.31-33.86,13.58-7.88,2.19-15.82,4.05-23.96,5.12-7.43.97-14.85,1.4-22.33,1.39-7.5-.02-14.87-1.03-22.19-2.45-7.56-1.47-14.95-3.59-22.06-6.61-2.88-1.22-5.69-2.57-7.9-4.85-1.68-1.74-2.78-3.67-2.29-6.3.57-3.02,2.68-5.14,5.69-5.4,2.05-.17,4.06.2,5.71,1.29,5.07,3.35,10.81,4.86,16.59,6.23,2.99.71,6.25.57,9.05,1.67,4.44,1.73,9.13.74,13.54,2,.12.03.25.03.37.03,3.39-.13,6.79-.47,10.18-.33,3.26.13,6.48-.21,9.7-.37,4.57-.22,9.1-.82,13.58-1.91,3.6-.87,7.33-1.21,10.89-2.2,13.44-3.71,26.32-8.91,38.57-15.56,9.84-5.34,19.24-11.4,28.2-18.13,5.26-3.95,10.49-7.94,15.63-12.04,2.12-1.7,3.93-3.78,5.92-5.65,2.81-2.65,5.75-5.16,8.45-7.9,10.31-10.49,20.69-20.92,30.77-31.64,6.22-6.61,11.92-13.71,17.9-20.55,2.62-3,5.35-5.91,8.04-8.86,9.49-10.4,18.92-20.84,28.01-31.6,5.62-6.66,11.81-12.89,18.11-18.93,5.03-4.82,10.8-8.77,16.81-12.36,6.79-4.06,5.65-2.95,5.66-9.92.02-27.99-.05-55.99-.06-83.98,0-1.09.14-2.27.58-3.25,2.04-4.5,6.09-5.31,10.36-2.16,1.89-2.12,3.78-4.25,5.68-6.36,3.68-4.08,8.59-5.83,13.73-6.99,6.92-1.56,13.42.08,19.17,3.82,6.86,4.47,11.26,10.88,12.13,19.23,1.18,11.3-1.36,21.66-8.22,30.86-7.85,10.53-18.33,16.02-31.42,16.58-.98.04-1.99-.09-2.96-.26-3.63-.64-6.76,1.69-6.73,5.34.03,5.53.45,11.06.38,16.58-.03,2.33.16,4.64.15,6.96,0,1.1.11,2.21.19,3.51,2.25-.53,4.29-.92,6.27-1.48,7.02-2.01,14.21-2.55,21.41-2,5.52.42,10.83,1.94,16.05,4.02,4.3,1.71,8.27,3.81,11.94,6.53,5.01,3.72,9.1,8.29,12.53,13.51,3.68,5.59,6.05,11.72,7.07,18.24.64,4.07,1.05,8.23.57,12.45-.41,3.58-.68,7.13-1.61,10.65-2.87,10.92-9,19.57-17.92,26.3-8.53,6.43-18.24,9.51-28.88,9.44-7.52-.05-14.4-2.54-20.77-6.38-9.64-5.81-15.67-14.39-18.48-25.21-.68-2.61-1.04-5.38-1.07-8.08-.13-10.25-.07-20.49-.08-30.74,0-1.11,0-2.22,0-3.91Zm76.72,24.97c-.14-2.46-.02-4.87-.46-7.18-1.19-6.24-4.09-11.79-8.17-16.54-9.15-10.65-21.29-14.7-34.94-14.44-5.67.11-11.27,1.51-16.79,2.97-2.15.57-4.08,2.89-4.14,5.18-.08,2.81.04,5.63.02,8.45-.02,4.34.4,8.68.46,13.02.05,3.27.05,6.57-.3,9.81-.66,6.1.73,11.85,2.83,17.42,2.23,5.92,6.45,10.46,12.01,13.25,6.27,3.14,12.98,4.5,20.15,3.21,6.02-1.08,11.6-3.19,16.13-7.14,8.43-7.35,13.24-16.63,13.19-28.01Zm-64.61-105.36c0,2.12-.01,4.25,0,6.37.03,3.17.63,4.17,3.75,5.1,4.8,1.43,9.6,1.12,14.22-.78,4.8-1.98,8.9-5.01,12.25-9,4.71-5.61,7.43-11.94,7.31-19.42-.1-6.43-4.08-12.16-10.81-14.68-1.47-.55-3.19-.96-4.7-.74-3.19.47-6.28,1.46-8.97,3.39-8.25,5.94-12.06,14.28-13.03,24.13-.18,1.86-.03,3.75-.02,5.62Z" style="stroke-width: 0px;"/>
  <path d="m101.02,294.69c-3.06,6.9-5.84,13.27-8.7,19.61-3.68,8.16-7.02,16.51-11.95,24.03-2.87,4.38-6.7,7.64-12,8.87-2.11.49-4.14.48-6.24-.07-8.12-2.15-13.45-9.19-13.43-17.59.04-24.87.02-49.74.03-74.61,0-23.37.06-46.74,0-70.11,0-2.97.79-5.34,3.09-7.24,2.13-1.76,4.49-1.46,6.7-.61,1.96.75,3.05,2.52,3.09,4.68.07,4,.04,8,.04,11.99-.02,43.11-.04,86.23-.05,129.34,0,1.75.11,3.5.03,5.25-.1,2.08,1.07,3.38,2.71,4.07,1.57.65,3.03.14,4.38-1.18,2.93-2.86,4.6-6.47,6.21-10.06,4.42-9.86,8.49-19.87,13.01-29.68,1.8-3.9,3.81-7.72,6.44-11.26,4.05-5.46,11.09-4.2,13.82.06,4.62,7.22,9.38,14.34,14.11,21.48.68,1.03,1.47,2.02,2.37,2.86,1.95,1.81,3.56,1.48,4.62-1.04.81-1.93,1.45-3.96,1.94-6,2.49-10.22,4.9-20.46,7.37-30.69,2.33-9.63,4.7-19.26,7.04-28.88,3.08-12.63,6.17-25.26,9.2-37.91.55-2.28.56-4.71,1.26-6.93.63-1.96,1.65-3.9,2.92-5.52,1.71-2.17,4.37-2.62,6.76-1.67,2.45.97,3.95,2.96,3.73,5.85-.2,2.57-.85,5.12-1.46,7.64-3.19,13.25-6.41,26.5-9.67,39.74-1.6,6.5-3.4,12.94-4.97,19.45-1.45,6.02-2.6,12.11-4.06,18.12-2.18,9.03-4.42,18.05-6.83,27.02-1.34,4.99-3.73,9.46-7.66,13.02-5.38,4.88-13.31,4.89-18.54-.19-2.61-2.53-4.82-5.36-6.72-8.47-2.46-4.04-4.99-8.04-7.49-12.05-.18-.29-.43-.53-1.1-1.34Z" style="stroke-width: 0px;"/>
  <path d="m258.24,227c1.5.92,2.35,1.64,3.33,2.01,4.52,1.69,8.8,1.31,13.15-1.01,4.37-2.33,8.04-5.4,11.48-8.85,1.33-1.32,2.58-2.75,4.05-3.89,2.95-2.28,7.15-1.55,9.18,1.56,1.18,1.81,1.04,3.83.08,5.69-.68,1.31-1.53,2.58-2.5,3.7-6.2,7.14-13.07,13.36-22.49,15.99-7.86,2.19-15.33,1.34-22.11-3.23-6.38-4.3-9.71-10.54-10.14-18.22-.16-2.86-.01-5.75,0-8.62,0-1.22,0-2.44,0-3.66-2.43-.98-3.92.26-5.27,1.5-3.86,3.57-7.12,7.63-9.94,12.09-4.06,6.43-5.68,13.43-5.66,20.92.02,7.37,0,14.75,0,22.12,0,3.37-1.1,6.1-4.25,7.71-2.52,1.29-5.54.77-7.01-1.41-.58-.86-.87-2.06-.9-3.12-.11-3.37-.02-6.75-.02-10.12,0-14.12-.03-28.24-.02-42.36,0-2.32-.61-4.62.09-6.95,1.09-3.63,4.21-5.58,7.69-4.58.8.23,1.56.75,2.2,1.29.85.72,1.57,1.59,2.47,2.52.47-.64.82-1.13,1.17-1.61,4.23-5.88,9.59-10.39,16.18-13.39,3.41-1.56,4.22-1.61,7.98-.93,2.41-2.77,4.67-5.75,7.32-8.34,5.32-5.21,11.36-9.38,18.9-10.64,5.45-.91,10.81-.76,16.06,1.63,8.58,3.91,9.81,13.63,5.61,20.17-2.31,3.6-5.11,6.71-8.42,9.36-7.28,5.84-14.64,11.58-21.95,17.39-1.93,1.53-3.77,3.16-6.26,5.27Zm-2.99-14.43c3.56-2.76,6.82-5.24,10.02-7.79,5.06-4.02,10.14-8.02,15.08-12.19,1.73-1.46,3.62-3.14,3.02-5.85-9.54-4.55-28.69,5.89-28.12,25.83Z" style="stroke-width: 0px;"/>
  <path d="m323.58,115.56c1.54.51,2.57-.38,3.61-.96,3.37-1.87,6.68-3.85,10.05-5.74,4.12-2.32,8.25-4.61,12.4-6.86,5.47-2.96,10.92-5.99,16.49-8.76,4.4-2.19,7.46-.08,8.58,3.01.83,2.28-.2,5.63-2.49,7.24-2.45,1.71-4.97,3.32-7.57,4.79-8.77,4.96-17.6,9.83-26.4,14.74-4.13,2.3-8.18,4.76-12.39,6.89-2.01,1.02-2.51,2.36-2.5,4.45.08,23.61.08,47.21.1,70.82,0,1.37.08,2.76-.06,4.12-.11,1.09-.33,2.23-.8,3.21-1.23,2.61-3.99,4.35-6.29,3.77-2.45-.62-4.08-2.31-4.52-4.9-.23-1.34-.41-2.7-.42-4.05-.05-21.48-.06-42.97-.09-64.45,0-1.2-.08-2.4-.14-3.96-5.17,2.83-9.96,5.43-14.72,8.06-6.09,3.37-12.16,6.78-18.26,10.14-3.59,1.98-7.2,3.91-10.84,5.8-1.09.57-2.28.98-3.46,1.35-2.31.74-4.47.43-6.17-1.41-1.54-1.67-1.87-4.94-.49-6.99.94-1.39,2.26-2.66,3.68-3.56,3.36-2.12,6.88-4,10.35-5.95,12.58-7.06,25.16-14.12,37.78-21.11,1.62-.9,2.34-1.96,2.31-3.81-.08-5.49-.05-10.99,0-16.49.02-3.14,1.08-5.82,3.8-7.66,3.23-2.19,6.83-.97,7.8,2.74.28,1.06.35,2.2.37,3.31.06,3.62.05,7.24.08,10.86,0,.47.15.94.21,1.35Z" style="stroke-width: 0px;"/>
  <path d="m114.85,127.81c-11.37.34-22.36,2.66-33.08,6.38-12.09,4.2-23.22,10.25-33.4,17.94-10.65,8.05-19.39,17.91-25.68,29.73-4.15,7.79-7.42,15.99-8.94,24.75-1.75,10.08-.83,20.04,2.49,29.66,1.77,5.15,4.41,9.99,7.53,14.51.42.61.81,1.25,1.23,1.86,1.77,2.56,1.59,5.04.02,7.67-2.35,3.95-6.18,4.66-9.71,1.65-2.61-2.22-4.46-5.06-6.11-7.98-3.87-6.85-7.1-14.08-8.14-21.87-.86-6.45-1.61-13-.55-19.63.64-4.02.6-8.16,1.65-12.14.95-3.59,1.72-7.25,3-10.72,3.58-9.74,8.54-18.72,14.92-26.97,4.06-5.25,8.56-10.06,13.4-14.55,6.59-6.12,13.84-11.38,21.73-15.7,8.84-4.85,18.04-8.92,27.62-12.05,6.95-2.27,14.06-3.97,21.38-4.66,4.69-.44,9.37-1,14.07-1.32,1.44-.1,3,.2,4.37.68,4.36,1.55,5.48,6.2,2.4,9.62-1.91,2.12-4.16,3.51-7.2,3.15-.98-.12-2-.02-3-.02Z" style="stroke-width: 0px;"/>
  <path d="m399.44,152.19c1.61,1.13,3.27,2.19,5.67,1.28,1.5-.57,3.21-.24,4.69.62,2.24,1.3,3.14,3.98,2.23,6.42-1.28,3.47-3.89,5.42-7.33,6.3-2.79.71-5.59.67-8.4-.21-2.87-.89-3.06-.83-4.59,1.6-2.88,4.58-6.44,8.57-10.31,12.3-3.45,3.33-7.33,5.93-11.95,7.38-6.76,2.13-13.04,1.02-18.69-3.05-7.16-5.14-10.75-12.48-10.91-21.1-.28-14.98,5.21-27.71,16.49-37.73,5.77-5.13,12.58-8.47,19.9-10.72,1.84-.56,3.96-.24,5.95-.28,1.25-.03,2.5.09,3.75.04,2.13-.09,3.2-1.1,3.33-3.2.09-1.49.07-3-.01-4.5-.11-2.12.75-3.92,1.85-5.59,1.39-2.11,4.05-2.98,6.23-2.25,2.42.81,4.01,2.74,4.02,5.22.04,12.12.18,24.25-.05,36.36-.07,3.66-1.19,7.31-1.85,11.11Zm-47.69,8.12c-.2,5.35,1.57,9.79,5.66,13.26,2.23,1.89,4.63,2.63,7.56,1.71,3.29-1.03,6.12-2.73,8.57-5.08,6.19-5.96,10.66-13.05,13.54-21.14,1.3-3.64,2.09-7.34,2.25-11.23.14-3.6-1.64-5.94-4.44-7.62-3.53-2.12-7.37-2.35-11.03-.46-3.19,1.64-6.35,3.45-9.18,5.64-8.11,6.29-12.12,14.82-12.93,24.93Z" style="stroke-width: 0px;"/>
  <path d="m450.43,12.32c-9.93.15-19.04,3.12-27.55,8.13-.86.5-1.68,1.13-2.61,1.43-4.97,1.62-8.6-2.84-7.67-6.21.54-1.94,1.82-3.5,3.44-4.77,3.77-2.95,8-5.1,12.42-6.78,6.29-2.39,12.78-3.7,19.59-4.06,14.97-.79,29.19,4.68,39.81,12.84,12.04,9.25,19.38,21.54,22.82,36.16,1.02,4.32,1.55,8.87,1.46,13.3-.14,7.06-.63,14.17-3.54,20.8-.74,1.69-1.55,3.43-2.68,4.87-1.75,2.24-3.67,2.66-5.91,1.78-2.87-1.13-4.49-3.16-4.28-5.88.12-1.58.52-3.22,1.19-4.65,3.23-7.01,3.98-14.44,3.17-21.92-1.07-9.85-4.95-18.67-11.34-26.33-6.12-7.33-13.69-12.6-22.65-15.85-5.05-1.83-10.25-2.92-15.66-2.86Z" style="stroke-width: 0px;"/>
  <path d="m212.92,98.47c8.84-.67,16.52,8.21,15.5,17.37-1.11,9.94-9.3,19.7-18.13,22.06-9.06,2.42-18.57-3.26-19.86-12.88-1.2-9,2.87-15.55,9.11-21.19,1.63-1.47,3.68-2.54,5.65-3.58,2.45-1.29,5.09-2.01,7.74-1.78Zm-6.35,28.55c4.9.03,9.6-3.51,11.12-8.36,1.36-4.34-1.7-8.51-6.22-8.86-4.61-.35-10.85,3.5-11.15,10.66-.14,3.31,3.05,6.55,6.25,6.56Z" style="stroke-width: 0px;"/>
  <path d="m286,84.11c.35,1.3.57,2.11.78,2.87.37.04.66.17.83.08,2.86-1.51,5.7-3.06,8.54-4.59.88-.47,1.75-.95,2.65-1.36,2.67-1.21,4.73-.78,5.89,1.19,1.31,2.23.84,5.21-1.19,6.7-1.2.88-2.54,1.57-3.85,2.28-5.02,2.73-10.04,5.47-15.11,8.11-.94.49-2.1.72-3.18.77-1.76.09-2.59-.52-3-2.17-.39-1.56-.64-3.17-.8-4.77-.58-5.8-1.09-11.61-1.63-17.41-.23-2.47-.44-4.94-.74-7.4-.21-1.8.45-3.14,1.84-4.22.68-.53,1.26-1.25,2-1.66,3.6-1.97,7.23-3.87,10.86-5.77,1.2-.63,2.43-1.21,3.65-1.81,2.52-1.25,5.13-1.14,6.23.25,1.57,2.01,1.21,5.5-.92,7.47-.9.83-2.01,1.45-3.1,2.04-3.27,1.8-6.58,3.52-9.85,5.3-.53.29-.96.74-1.39,1.08.09,1.97,1.36,2.17,2.62,1.77,1.4-.45,2.68-1.28,4.03-1.92,1.45-.7,2.86-1.51,4.37-2.03,2.49-.85,4.37.54,4.6,3.13.23,2.56-.26,4.65-2.84,5.89-2.24,1.07-4.39,2.32-6.56,3.51-1.51.82-3.01,1.68-4.72,2.63Z" style="stroke-width: 0px;"/>
  <path d="m180.04,255.3c0-8.74.03-17.47-.02-26.21-.01-1.82.3-3.44,1.43-4.89,1.93-2.48,4.8-3.51,7.59-2.66,2.08.63,3.84,3.32,3.84,6.28,0,10.23-.04,20.46-.12,30.69-.05,6.09-.53,12.2-.2,18.27.13,2.41-.14,4.68-.44,6.97-.4,3.03-2.99,5.52-5.97,5.9-.79.1-1.75-.19-2.47-.59-2.62-1.48-3.74-3.77-3.71-6.81.08-8.99.03-17.97.03-26.96.02,0,.04,0,.05,0Z" style="stroke-width: 0px;"/>
  <path d="m174.62,142.06c2.38,1.32,4.26,2.27,6.05,3.36,4.17,2.54,4.13,5.23.03,7.82-1.63,1.03-3.25,1.16-4.95.49-1.96-.77-3.92-1.56-5.81-2.48-2.32-1.13-4.5-1.27-6.76.59.28,1.97.6,4.03.86,6.09.43,3.42-4.09,7.03-7.27,5.76-1.18-.47-2.03-1.38-2.25-2.77-.43-2.81-1.02-5.6-1.35-8.41-.41-3.45-.56-6.93-.93-10.38-.28-2.58-.65-5.16-1.11-7.71-.52-2.87.29-5.25,2.8-6.61,3.61-1.95,7.19-4.05,11.02-5.44,3.66-1.33,7.63-1.61,10.85,1.45,3.25,3.09,4.22,6.82,3.01,11.21-.71,2.57-1.68,4.9-4.19,7.03Zm-12.92-.79c.56-.06,1.06-.02,1.5-.17,1.29-.45,2.55-.95,3.81-1.46,1.84-.75,2.56-2.2,2.61-4.11.07-2.65-1.31-3.82-3.73-2.8-1.89.8-3.6,2.04-5.32,3.05.42,2.03.76,3.7,1.13,5.5Z" style="stroke-width: 0px;"/>
  <path d="m141.11,151.68c-.02,3.49-1.36,6.51-3.45,9.23-1.99,2.59-4.42,4.68-7.24,6.31-1.61.93-3.2,1.91-4.89,2.65-1.39.61-1.81,1.55-1.76,2.93.07,1.99.17,3.99.1,5.98-.1,2.84-1.48,4.95-4.04,6.21-2.2,1.08-3.95.62-5.01-1.52-.53-1.07-.75-2.37-.8-3.57-.31-7.33-.53-14.65-.81-21.98-.03-.86-.16-1.73-.37-2.57-.81-3.28.13-6.12,2.89-7.85,3.98-2.5,8.02-5.29,12.44-6.64,7.07-2.17,11.68,1.76,12.93,8.96.11.6.01,1.24.01,1.87Zm-18.63,2.29c.02,2.07-.6,4.25,1.36,6.11,1.2-.38,2.53-.68,3.75-1.2,2.51-1.07,3.11-2.13,3.03-4.92-.08-2.66-1.52-3.52-3.92-2.29-1.31.67-2.59,1.41-4.22,2.3Z" style="stroke-width: 0px;"/>
  <path d="m335.82,46.92c-5.66-.88-9.31,1.71-12.36,5.49-2.05,2.56-2.18,5.57-1.29,8.53,1.44,4.75,6.44,4.8,9.86,2.72,1.66-1.01,3.01-2.62,4.28-4.14,2.15-2.58,3.02-2.88,5.94-1.46.45.22.87.48,1.31.72,1.28.69,1.67,1.6,1.2,3.09-1.02,3.18-2.75,5.88-5.2,8.07-3.81,3.4-8.08,5.72-13.45,5.55-5.37-.17-9.2-2.83-11.89-7.21-2.61-4.26-2.98-8.88-1.51-13.66,2.64-8.59,8.11-14.49,16.73-17.15,3.24-1,6.65-1.04,9.79.76,3.12,1.79,3.71,4.9,1.28,7.44-.62.64-1.65,1-2.55,1.22-.82.2-1.74.04-2.16.04Z" style="stroke-width: 0px;"/>
  <path d="m362.38,31.79c-2.59,1.3-4.56,2.39-6.6,3.29-2.31,1.02-3.69.44-4.86-1.84-1.42-2.78-.92-5.12,1.7-6.74,2.43-1.5,4.98-2.82,7.53-4.13,4.32-2.22,8.68-4.38,13.03-6.55.89-.44,1.77-.95,2.72-1.24,2.04-.61,4,.02,4.95,1.64.98,1.68,1.57,3.48-.06,5.15-.93.96-1.85,1.98-2.95,2.7-1.76,1.16-3.66,2.09-5.7,3.22,0,1.02-.08,2,.01,2.97.4,3.94.91,7.88,1.29,11.82.28,2.97.55,5.95.57,8.92.01,2.11-3.91,5.09-6.03,4.76-1.48-.24-2.49-1.19-2.74-2.69-.53-3.18-1.01-6.36-1.43-9.55-.5-3.79-.93-7.6-1.43-11.76Z" style="stroke-width: 0px;"/>
  <path d="m262.72,88.17c0,4.18.22,8.38-.05,12.55-.48,7.49-4.58,12.65-11.17,15.92-1.64.82-3.34,1.54-5.32,1.5-1.95-.04-3.64-.49-5.21-1.64-2.28-1.66-3.38-3.98-2.82-5.93.85-2.92,3.84-5.01,6.41-4.66.37.05.75.05,1.12.1,1.06.14,2.5.79,3.12.33,1.44-1.08,2.78-2.53,3.62-4.11,1.44-2.72,1.12-5.8.95-8.78-.14-2.35-.38-4.69-.62-7.03-.17-1.72-.39-3.43-.62-5.14-.51-3.74,1.56-6.89,5.21-7.87,2.37-.64,4.22.53,4.53,2.9.25,1.96.52,3.91.63,5.88.11,1.99.02,3.98.02,5.98.07,0,.13,0,.2,0Z" style="stroke-width: 0px;"/>
  <path d="m194.47,196.58c.26,4.46-3.33,9.08-8.23,9.26-3.95.15-7.03-3.16-7.05-7.45-.02-4.38,3.79-8.27,8.21-8.39,3.7-.1,7.02,2.99,7.07,6.58Z" style="stroke-width: 0px;"/>
</svg>